<svg xmlns="http://www.w3.org/2000/svg" viewBox="0 0 1000 1000"><metadata> Created by potrace 1.16, written by Peter Selinger 2001-2019 </metadata><g transform="translate(0.000000,1063.000000) scale(0.100000,-0.100000)" fill="#000000" stroke="none"><path d="M0 5315 l0 -5315 5315 0 5315 0 0 5315 0 5315 -5315 0 -5315 0 0 -5315z m3473 5085 c14 -11 29 -34 32 -51 6 -26 11 -30 28 -24 323 95 565 91 771 -12 76 -38 222 -172 213 -195 -2 -7 0 -23 4 -35 7 -18 4 -26 -16 -39 l-24 -16 26 -41 c37 -59 79 -179 93 -269 19 -120 8 -372 -24 -543 -138 -731 -479 -1397 -961 -1881 -276 -277 -526 -425 -723 -428 -83 -1 -76 9 -92 -126 -6 -52 -13 -108 -15 -123 l-5 -28 50 28 c27 15 53 24 57 19 4 -5 1 -13 -8 -19 -13 -8 -14 -16 -6 -37 8 -22 3 -40 -34 -115 -50 -103 -79 -127 -128 -109 -24 9 -32 9 -45 -4 -14 -15 -18 -14 -43 4 -65 48 -75 135 -43 389 l22 181 -32 48 c-58 86 -86 222 -60 290 14 38 55 60 111 60 36 0 50 4 53 15 3 9 32 162 66 341 34 179 133 683 221 1120 156 776 160 797 201 875 50 97 100 177 128 205 12 12 20 28 18 36 -10 47 -328 -244 -441 -403 -143 -201 -226 -427 -242 -659 -6 -79 -2 -132 21 -295 5 -35 3 -49 -11 -62 -20 -21 -49 -22 -69 -2 -13 14 -16 13 -30 -6 -14 -21 -16 -21 -40 -5 -39 25 -54 63 -72 192 -36 261 14 550 138 799 130 258 367 517 620 678 54 34 57 38 67 94 29 150 48 173 141 173 42 0 64 -5 83 -20z m1412 -1386 c24 -16 55 -61 55 -82 0 -4 -10 -19 -22 -32 -17 -19 -21 -33 -19 -79 3 -78 -27 -165 -121 -348 -43 -84 -74 -153 -68 -153 5 0 15 7 22 16 7 9 69 76 137 150 133 144 135 145 214 123 26 -7 44 -21 57 -42 25 -41 25 -59 -1 -83 -14 -12 -19 -27 -16 -43 3 -13 -21 -111 -55 -220 -54 -181 -116 -414 -132 -503 l-7 -37 60 27 c46 20 65 35 78 61 10 20 45 78 79 131 134 212 201 342 238 462 74 246 193 441 310 509 46 27 58 30 124 27 71 -3 75 -5 108 -41 38 -41 43 -67 17 -93 -13 -12 -18 -34 -19 -73 -1 -94 -76 -214 -224 -355 -64 -61 -89 -94 -116 -150 -37 -78 -59 -201 -49 -271 8 -53 25 -105 34 -105 4 0 23 16 42 36 18 20 59 52 89 71 130 84 452 452 490 560 47 134 165 241 300 272 115 27 249 4 294 -50 32 -38 33 -63 4 -83 -17 -12 -22 -24 -20 -49 5 -51 -16 -63 -86 -49 -117 24 -221 -29 -278 -141 -66 -128 -31 -247 158 -544 l65 -102 13 57 c8 31 15 63 16 71 1 7 13 25 27 40 13 14 128 149 256 299 128 149 236 272 240 272 3 0 17 24 30 52 48 106 167 201 282 227 114 27 248 3 293 -50 32 -38 33 -63 4 -83 -17 -12 -22 -24 -20 -49 5 -51 -16 -63 -86 -49 -117 24 -221 -29 -278 -141 -66 -128 -31 -247 158 -544 l65 -102 13 57 c8 31 15 63 16 71 1 7 13 25 27 40 13 14 128 148 255 297 127 148 242 276 257 282 37 17 126 15 152 -3 12 -8 27 -31 33 -51 11 -32 10 -37 -11 -55 -16 -14 -23 -29 -21 -47 2 -22 -35 -72 -220 -287 -122 -143 -268 -316 -324 -383 l-101 -124 10 -51 c12 -68 3 -217 -18 -287 -29 -94 -85 -196 -142 -260 -31 -33 -53 -63 -51 -66 9 -9 101 17 172 48 l70 31 216 -7 c347 -11 446 -29 475 -87 20 -38 19 -56 -4 -71 -14 -8 -18 -19 -15 -37 3 -15 -1 -35 -9 -46 -14 -18 -18 -18 -83 -5 -58 13 -200 15 -857 13 -434 -1 -791 -4 -794 -7 -13 -12 -204 -858 -312 -1376 -126 -607 -201 -1003 -246 -1289 -16 -102 -16 -104 5 -123 26 -25 25 -48 -5 -108 -30 -59 -53 -74 -91 -60 -21 8 -31 7 -45 -6 -23 -20 -52 -11 -76 24 -15 23 -18 46 -17 152 2 138 26 295 135 865 l61 320 48 70 c68 101 147 244 155 285 7 32 3 29 -53 -41 -62 -79 -124 -135 -179 -163 -49 -25 -123 -21 -167 9 l-37 25 -26 -20 -26 -20 -24 22 c-37 35 -73 104 -73 141 0 18 9 69 20 112 11 43 20 96 20 117 l0 39 -62 -78 c-191 -242 -256 -288 -324 -230 -20 18 -28 35 -33 80 l-6 57 -65 -81 c-148 -185 -278 -262 -360 -214 -14 8 -31 17 -38 21 -7 4 -23 -3 -36 -15 l-22 -21 -32 33 c-17 17 -40 52 -51 77 -19 43 -19 50 -6 114 8 38 24 88 35 111 21 43 18 75 -6 75 -26 0 -95 -73 -159 -170 -79 -119 -194 -356 -272 -559 -60 -159 -83 -193 -119 -173 -12 6 -25 5 -44 -6 -25 -15 -30 -14 -54 1 -37 25 -41 57 -23 176 24 164 187 901 325 1476 l57 240 74 55 74 55 -118 3 c-65 1 -122 -1 -126 -5 -37 -37 -549 -2466 -525 -2490 1 -2 43 74 91 169 49 95 94 182 100 194 5 11 33 41 62 66 48 43 54 45 95 41 61 -7 92 11 171 99 57 65 67 83 92 163 43 142 118 200 188 145 33 -26 42 -64 21 -95 -9 -14 -17 -44 -19 -68 -1 -24 -6 -53 -9 -65 -4 -12 -3 -22 2 -22 5 0 18 33 30 73 12 39 27 80 34 90 17 23 187 65 297 74 266 21 460 -32 604 -166 56 -53 64 -65 65 -99 1 -25 -4 -44 -13 -52 -13 -11 -12 -16 4 -39 65 -93 114 -252 125 -411 21 -288 -105 -844 -283 -1249 -188 -427 -418 -769 -715 -1067 -283 -282 -522 -425 -718 -428 -88 -1 -78 15 -99 -153 -7 -56 -10 -105 -7 -108 3 -4 20 1 37 9 36 19 77 22 50 4 -13 -9 -14 -17 -6 -38 9 -23 4 -40 -28 -108 -49 -104 -72 -127 -122 -119 -27 5 -42 2 -55 -10 -17 -15 -20 -15 -46 4 -64 47 -74 135 -42 388 l22 181 -32 48 c-58 86 -86 222 -60 290 14 38 55 60 111 60 36 0 50 4 53 15 3 9 23 115 46 236 22 121 122 627 221 1125 167 833 184 911 216 975 42 83 96 170 128 205 12 14 25 35 28 48 5 21 1 20 -46 -14 -221 -157 -388 -345 -501 -564 -109 -212 -141 -356 -132 -590 3 -85 9 -176 12 -202 6 -44 4 -48 -21 -60 -20 -9 -31 -9 -44 -1 -15 9 -22 7 -39 -9 -20 -20 -22 -20 -46 -4 -41 26 -55 67 -73 210 -15 114 -15 153 -6 262 9 96 9 132 0 148 -28 51 0 293 94 790 87 466 204 1027 349 1671 l72 320 59 45 c32 25 69 53 81 63 25 20 71 20 -711 1 -115 -2 -210 -9 -217 -14 -17 -15 -63 8 -80 41 -20 39 -18 102 4 125 55 61 111 72 417 79 138 3 314 8 392 11 l141 6 62 246 c33 136 68 261 76 278 19 39 58 57 121 56 57 -2 94 -26 107 -71 8 -26 5 -35 -12 -54 -12 -13 -22 -31 -22 -40 0 -9 -26 -121 -59 -249 -75 -298 -73 -288 -62 -288 5 0 24 15 43 33 18 17 50 46 69 63 39 32 42 41 99 259 17 66 49 165 72 220 35 88 40 109 39 175 -1 41 5 122 14 180 15 102 71 353 84 377 4 7 47 54 97 105 113 116 124 139 44 92 -69 -42 -182 -83 -226 -84 -44 0 -93 18 -134 50 -29 22 -39 25 -55 16 -11 -6 -23 -14 -26 -19 -3 -4 -16 4 -29 18 -21 22 -23 33 -23 122 1 76 6 118 27 186 31 104 100 254 161 353 38 60 51 74 83 83 50 14 134 7 167 -15z m1196 -5645 c45 -20 129 -96 129 -118 0 -5 -14 -19 -31 -31 -28 -20 -29 -24 -15 -39 21 -23 20 -50 -1 -73 -18 -20 -48 -24 -58 -7 -16 25 -90 69 -117 69 -84 0 -198 -152 -256 -342 -22 -71 -40 -198 -26 -185 4 4 9 17 11 29 4 28 90 190 153 288 60 92 105 138 147 146 27 5 37 1 63 -24 28 -28 30 -36 30 -99 0 -136 30 -308 68 -395 l17 -41 26 39 c15 22 30 50 34 64 4 14 24 43 44 65 98 107 201 295 235 427 42 166 74 208 159 208 62 0 102 -21 116 -61 10 -28 8 -35 -9 -54 -11 -12 -20 -32 -20 -46 0 -13 -12 -60 -26 -104 -28 -88 -43 -262 -26 -305 9 -24 11 -22 42 40 18 36 43 93 56 127 13 34 33 79 44 100 11 21 20 41 20 45 0 13 107 172 129 192 28 25 118 27 155 3 42 -28 51 -65 26 -99 -11 -16 -19 -32 -16 -36 3 -5 -14 -140 -38 -301 -40 -275 -44 -325 -17 -240 6 20 41 87 76 150 36 62 65 115 65 118 1 8 189 142 309 220 82 53 99 61 142 61 64 0 95 -15 114 -57 16 -33 16 -36 -4 -57 -12 -13 -21 -36 -21 -54 0 -29 -9 -37 -107 -103 -224 -150 -468 -344 -585 -465 l-46 -49 -37 -205 c-154 -869 -358 -1540 -546 -1793 -83 -112 -178 -148 -251 -95 -16 11 -28 15 -28 9 0 -5 -9 -13 -20 -16 -11 -4 -17 -11 -14 -17 11 -17 -29 8 -52 34 -68 74 -97 193 -97 398 0 569 285 1211 786 1773 85 96 104 125 167 253 81 165 88 207 19 112 -106 -143 -171 -198 -237 -198 -42 0 -94 39 -117 87 l-21 42 -59 -90 c-146 -222 -291 -307 -398 -234 -34 22 -37 23 -49 7 -21 -28 -44 -24 -77 13 -57 66 -70 102 -60 175 5 36 16 86 24 112 16 50 20 98 8 98 -5 -1 -39 -42 -78 -91 -113 -146 -185 -216 -229 -224 -20 -4 -47 -3 -59 2 -15 7 -29 5 -49 -6 -26 -15 -28 -15 -56 12 -63 61 -70 182 -18 327 70 196 171 412 208 447 101 91 228 114 349 62z"/><path d="M3485 10272 c-6 -4 -10 -16 -11 -27 0 -11 -3 -39 -7 -62 -12 -70 9 -49 22 23 12 69 12 78 -4 66z"/><path d="M3845 10150 c-95 -15 -230 -57 -326 -102 -49 -22 -89 -44 -89 -47 0 -4 -105 -531 -234 -1171 -191 -951 -304 -1538 -353 -1827 -6 -36 9 -44 23 -14 22 47 142 159 209 195 437 237 922 896 1154 1569 173 501 217 937 117 1138 l-26 50 22 30 22 29 -30 31 c-70 74 -189 118 -334 124 -52 2 -122 0 -155 -5z"/><path d="M4730 8723 c-75 -80 -122 -173 -127 -252 l-4 -56 33 75 c43 96 94 184 128 224 25 28 48 76 37 76 -3 0 -33 -30 -67 -67z"/><path d="M5768 8601 c-19 -23 -47 -64 -62 -93 l-28 -53 31 35 c42 47 104 140 98 146 -2 3 -20 -13 -39 -35z"/><path d="M7239 8162 c-48 -50 -357 -414 -456 -536 l-80 -99 9 -45 c4 -25 10 -47 11 -49 2 -2 23 4 47 12 23 8 51 15 61 15 23 0 37 -46 20 -69 -14 -20 -14 -20 -40 -121 -74 -291 -113 -461 -107 -467 4 -4 17 4 29 18 12 14 45 45 73 67 l52 42 154 0 154 0 -4 36 c-14 115 74 316 249 571 27 39 49 80 49 90 0 20 -26 67 -127 233 l-71 115 10 75 c9 75 12 140 5 146 -2 2 -19 -13 -38 -34z"/><path d="M6220 8088 c-72 -94 -248 -277 -325 -337 -145 -116 -258 -135 -361 -62 -26 18 -46 26 -50 20 -12 -21 -34 14 -34 55 0 22 -3 65 -7 94 l-6 52 -47 -78 c-106 -176 -273 -402 -298 -402 -4 0 -6 21 -5 48 l2 47 -13 -60 c-27 -123 -107 -330 -209 -547 -58 -123 -57 -142 4 -89 59 52 140 95 193 102 73 11 501 10 701 -2 94 -5 223 -12 287 -15 l117 -7 -5 50 c-15 125 66 315 247 580 27 39 49 80 49 90 0 19 -26 65 -123 225 l-58 96 11 80 c7 54 7 88 1 106 -6 14 -12 26 -13 26 -2 -1 -28 -33 -58 -72z"/><path d="M6553 7308 c-82 -123 -148 -249 -168 -321 -21 -75 -14 -95 13 -35 11 26 34 67 51 92 57 82 172 310 169 335 -2 19 -15 5 -65 -71z"/><path d="M7553 7308 c-101 -153 -183 -323 -183 -380 0 -18 18 -7 24 15 3 13 24 52 47 87 73 113 180 323 177 349 -2 19 -15 5 -65 -71z"/><path d="M4852 7227 c-46 -119 -96 -277 -89 -283 4 -5 46 91 97 226 18 47 39 94 46 105 18 26 18 55 0 55 -9 0 -30 -39 -54 -103z"/><path d="M6515 6890 l-49 -50 34 10 c19 6 36 10 38 10 5 0 33 72 29 76 -2 2 -25 -19 -52 -46z"/><path d="M4815 6701 l-60 -6 -57 -107 c-39 -74 -65 -138 -82 -205 -66 -260 -257 -1089 -256 -1111 1 -18 23 35 55 134 39 120 141 333 181 378 40 45 133 56 199 23 31 -15 65 -49 82 -81 14 -26 13 -30 -10 -55 -24 -25 -24 -28 -11 -66 8 -22 19 -82 24 -132 6 -51 16 -107 23 -124 l12 -32 45 94 c25 53 65 118 92 148 63 73 187 248 278 395 126 202 205 261 350 260 89 -1 150 -26 207 -84 54 -57 59 -77 24 -98 -25 -14 -27 -19 -19 -38 16 -34 2 -73 -27 -80 -20 -5 -34 2 -65 30 -70 63 -115 61 -190 -10 -83 -78 -170 -276 -186 -425 -7 -69 4 -73 25 -8 22 69 180 333 226 377 52 50 92 56 129 19 20 -20 24 -36 30 -137 10 -168 58 -380 85 -380 7 0 61 84 61 95 0 5 17 29 38 54 57 67 132 182 190 291 47 88 55 114 112 365 33 149 66 294 72 323 10 47 17 59 67 99 31 25 66 50 79 56 12 6 22 14 22 19 0 10 -63 10 -519 -2 -369 -11 -374 -10 -396 10 -21 19 -32 20 -396 18 -206 -1 -401 -4 -434 -7z"/><path d="M5030 4844 c-117 -21 -151 -28 -216 -50 -41 -13 -110 -40 -153 -60 l-77 -35 -37 -187 c-19 -103 -119 -599 -220 -1102 -220 -1089 -343 -1737 -332 -1749 2 -2 26 21 53 50 27 30 62 68 78 85 16 17 61 48 99 68 435 234 922 896 1154 1569 102 297 160 572 168 797 6 168 -8 256 -56 349 -18 37 -26 63 -21 71 5 8 7 17 4 21 -2 4 3 9 11 13 52 20 -55 101 -185 140 -54 17 -221 29 -270 20z"/><path d="M6862 2146 c-291 -353 -505 -783 -589 -1184 -22 -107 -26 -154 -27 -297 -1 -163 12 -265 35 -265 9 0 45 93 65 169 7 29 24 72 38 95 71 122 196 497 286 856 53 213 105 354 206 558 36 73 64 138 62 144 -2 6 -36 -28 -76 -76z"/></g></svg>