<!DOCTYPE svg PUBLIC "-//W3C//DTD SVG 20010904.0.0//EN" "http://www.w3.org/TR/2001/REC-SVG-20010904.0.0/DTD/svg10.dtd"><svg version="1.0" xmlns="http://www.w3.org/2000/svg" width="1063.0pt" height="1063.0pt" viewBox="0 0 1063.0 1063.0" preserveAspectRatio="xMidYMid meet"><g transform="translate(0.0,1063.0) scale(0.1,-0.1)" fill="#0.0" stroke="none"><path d="M0 5315 l0 -5315 5315 0 5315 0 0 5315 0 5315 -5315 0 -5315 0 0 -5315z m3459 5060 c8 -27 11 -64 7 -95 -4 -29 -2 -50 3 -50 27 0 59 26 85 65 30 48 43 54 180 80 122 23 353 25 340 3 -5 -8 3 -9 27 -5 19 3 28 3 22 1 -22 -10 15 -36 83 -60 204 -71 336 -233 386 -471 29 -143 22 -401 -17 -598 -16 -77 -28 -150 -29 -162 -1 -13 -5 -23 -10 -23 -4 0 -5 -12 -2 -26 5 -18 3 -24 -5 -18 -8 5 -10 -1 -7 -19 3 -16 1 -24 -5 -20 -6 4 -7 -4 -3 -21 5 -20 4 -26 -5 -20 -9 5 -10 -1 -5 -20 5 -19 3 -26 -4 -21 -7 4 -9 -3 -5 -22 4 -18 3 -23 -3 -15 -6 9 -12 1 -21 -29 -7 -22 -10 -44 -7 -47 3 -3 6 3 6 13 0 10 3 16 6 12 9 -9 -42 -166 -109 -337 -268 -686 -778 -1325 -1230 -1541 -124 -58 -211 -78 -286 -63 -38 8 -40 27 -6 58 l25 24 -22 5 c-12 4 -24 5 -25 3 -2 -2 -12 -65 -22 -140 -12 -93 -14 -136 -7 -132 6 2 19 7 28 11 24 10 61 -30 53 -58 -12 -40 -66 -151 -82 -169 -9 -10 -11 -18 -5 -18 17 0 43 31 63 75 31 67 21 22 -12 -56 -42 -100 -60 -117 -134 -125 -56 -6 -63 -4 -92 20 -58 49 -64 130 -32 391 l21 170 -32 49 c-58 86 -86 222 -60 290 14 38 55 60 111 60 36 0 50 4 53 15 3 9 23 115 46 236 22 121 126 650 231 1175 190 948 191 956 234 1038 23 45 39 82 35 82 -12 0 -152 -124 -221 -196 -127 -133 -241 -307 -300 -457 -16 -42 -29 -64 -33 -56 -3 8 -4 1 -1 -14 4 -21 2 -27 -6 -21 -9 5 -10 1 -7 -14 4 -12 2 -24 -2 -27 -5 -3 -9 -13 -9 -23 0 -9 -5 -62 -11 -117 -8 -73 -8 -124 1 -190 18 -145 20 -251 5 -264 -8 -7 -37 -14 -65 -18 -95 -11 -122 26 -147 203 -36 261 14 550 138 799 130 258 367 517 620 678 54 34 57 38 67 94 29 149 48 173 140 173 l57 0 13 -45z m1391 -1345 c14 -4 19 -8 13 -9 -20 -2 -15 -18 13 -46 24 -24 25 -31 22 -109 -2 -47 -5 -82 -7 -80 -2 2 -23 -40 -46 -94 -23 -53 -63 -135 -88 -181 -26 -46 -45 -86 -42 -89 3 -3 6 -3 8 -1 18 28 129 256 143 293 10 27 19 45 21 39 6 -16 -45 -150 -93 -245 -27 -54 -39 -88 -32 -88 7 0 54 42 103 94 96 100 122 113 194 101 30 -5 38 -10 34 -24 -2 -10 3 -23 11 -30 21 -18 20 -71 -3 -153 -31 -109 -33 -117 -15 -83 20 39 14 14 -27 -117 -22 -72 -36 -104 -42 -95 -6 8 -7 3 -3 -13 8 -35 -4 -76 -16 -58 -6 8 -7 1 -3 -22 5 -27 4 -32 -5 -20 -9 12 -10 9 -5 -13 4 -19 2 -26 -5 -22 -7 5 -9 -2 -4 -21 5 -19 4 -25 -5 -20 -8 6 -10 0 -5 -18 4 -17 2 -26 -6 -26 -7 0 -9 -8 -5 -20 4 -12 2 -20 -5 -20 -7 0 -9 -8 -5 -20 3 -11 3 -25 -1 -32 -4 -6 -9 -33 -11 -60 l-4 -48 36 25 c20 13 45 27 55 30 20 6 156 205 232 340 75 132 104 196 132 287 75 246 194 442 310 508 42 24 63 30 114 30 40 0 61 -4 57 -10 -3 -5 -1 -10 6 -10 7 0 9 -3 6 -7 -4 -4 5 -20 20 -35 24 -25 28 -37 26 -78 -4 -89 -64 -181 -217 -330 -131 -127 -166 -207 -167 -383 0 -102 9 -139 49 -179 35 -38 68 -37 77 1 4 19 20 38 48 57 121 79 441 449 477 551 47 134 165 241 300 272 52 12 164 13 200 1 14 -4 20 -8 14 -9 -20 -2 -11 -30 12 -35 49 -13 72 -69 38 -97 -14 -11 -14 -13 0 -21 17 -9 21 -45 8 -63 -17 -24 -112 -49 -98 -26 8 12 -18 21 -57 21 -47 -1 -116 -35 -164 -83 -24 -22 -43 -36 -43 -30 0 50 82 145 155 179 54 26 46 33 -9 10 -51 -21 -114 -83 -144 -140 -21 -41 -26 -65 -26 -121 0 -87 30 -160 134 -331 40 -66 92 -152 116 -192 40 -69 42 -72 48 -45 3 15 7 52 8 81 l3 53 223 262 c123 144 235 273 250 287 15 14 40 51 56 82 52 103 165 191 276 217 52 12 164 13 200 1 14 -4 20 -8 14 -9 -20 -2 -11 -30 12 -35 49 -13 72 -69 38 -97 -14 -11 -14 -13 0 -21 17 -9 21 -45 8 -63 -17 -24 -112 -49 -98 -26 8 12 -18 21 -57 21 -47 -1 -116 -35 -164 -83 -47 -45 -50 -44 -28 11 22 52 81 110 140 138 54 26 46 33 -10 10 -49 -21 -117 -88 -145 -143 -19 -38 -24 -63 -24 -118 1 -88 32 -163 134 -331 40 -65 92 -152 116 -192 40 -69 42 -72 48 -45 3 15 7 52 8 81 l3 53 232 272 c127 150 246 282 264 295 24 17 46 22 91 22 33 0 57 -4 54 -8 -3 -5 2 -21 10 -36 17 -34 18 -58 2 -74 -9 -9 -9 -18 1 -38 10 -22 9 -31 -5 -51 -9 -14 -122 -150 -252 -302 -131 -152 -265 -310 -298 -351 l-61 -75 -7 -120 c-9 -157 -10 -165 -18 -165 -5 0 -8 -6 -8 -13 0 -26 -78 -173 -119 -225 -23 -29 -60 -66 -83 -82 -23 -17 -37 -30 -31 -30 5 0 28 14 51 31 54 39 126 140 163 227 33 78 38 68 8 -20 -27 -82 -59 -142 -108 -208 -22 -29 -39 -55 -37 -57 1 -2 36 9 77 23 l74 26 245 -6 c374 -10 475 -27 505 -87 20 -38 19 -56 -4 -71 -14 -8 -18 -19 -15 -37 3 -15 -1 -35 -9 -46 -14 -18 -18 -18 -83 -5 -58 13 -200 15 -857 13 -434 -1 -791 -4 -794 -7 -13 -12 -204 -858 -312 -1376 -126 -607 -201 -1003 -246 -1289 -16 -102 -16 -104 5 -123 26 -25 25 -48 -5 -108 -30 -59 -53 -74 -91 -60 -21 8 -31 7 -45 -6 -23 -20 -52 -11 -76 24 -15 23 -18 46 -17 152 2 138 26 295 135 865 l61 320 48 70 c68 101 147 244 155 285 7 32 3 29 -53 -41 -62 -79 -124 -135 -179 -163 -49 -25 -123 -21 -167 9 l-37 25 -26 -20 -26 -20 -24 22 c-37 35 -73 104 -73 141 0 18 9 69 20 112 11 43 20 96 20 117 l0 39 -62 -78 c-191 -242 -256 -288 -324 -230 -20 18 -28 35 -33 80 l-6 57 -65 -81 c-148 -185 -278 -262 -360 -214 -14 8 -31 17 -38 21 -7 4 -23 -3 -36 -15 l-22 -21 -32 33 c-17 17 -40 52 -51 77 -19 43 -19 50 -6 114 8 38 24 88 35 111 21 43 18 75 -6 75 -26 0 -95 -73 -159 -170 -79 -119 -194 -356 -272 -559 -60 -159 -83 -193 -119 -173 -12 6 -25 5 -44 -6 -25 -15 -30 -14 -54 1 -37 25 -41 57 -23 176 24 164 187 901 325 1476 l57 240 74 55 74 55 -118 3 c-65 1 -122 -1 -126 -5 -37 -37 -549 -2466 -525 -2490 1 -2 43 74 91 169 49 95 94 182 100 194 5 11 33 41 62 66 48 43 54 45 95 41 61 -7 92 11 171 99 57 65 67 83 92 163 43 142 118 200 188 145 33 -26 42 -64 21 -95 -9 -14 -17 -44 -19 -68 -1 -24 -6 -53 -9 -65 -4 -12 -3 -22 2 -22 5 0 18 33 30 73 12 39 27 80 34 90 17 23 187 65 297 74 266 21 460 -32 604 -166 56 -53 64 -65 65 -99 1 -25 -4 -44 -13 -52 -13 -11 -12 -16 4 -39 65 -93 114 -252 125 -411 21 -288 -105 -844 -283 -1249 -188 -427 -418 -769 -715 -1067 -283 -282 -522 -425 -718 -428 -88 -1 -78 15 -99 -153 -7 -56 -10 -105 -7 -108 3 -4 20 1 37 9 36 19 77 22 50 4 -13 -9 -14 -17 -6 -38 9 -23 4 -40 -28 -108 -49 -104 -72 -127 -122 -119 -27 5 -42 2 -55 -10 -17 -15 -20 -15 -46 4 -64 47 -74 135 -42 388 l22 181 -32 48 c-58 86 -86 222 -60 290 14 38 55 60 111 60 36 0 50 4 53 15 3 9 23 115 46 236 22 121 122 627 221 1125 167 833 184 911 216 975 42 83 96 170 128 205 12 14 25 35 28 48 5 21 1 20 -46 -14 -221 -157 -388 -345 -501 -564 -109 -212 -141 -356 -132 -590 3 -85 9 -176 12 -202 6 -44 4 -48 -21 -60 -20 -9 -31 -9 -44 -1 -15 9 -22 7 -39 -9 -20 -20 -22 -20 -46 -4 -41 26 -55 67 -73 210 -15 114 -15 153 -6 262 9 96 9 132 0 148 -28 51 0 293 94 790 87 466 204 1027 349 1671 l72 320 59 45 c32 25 69 53 81 63 25 20 71 20 -711 1 -120 -2 -210 -9 -217 -15 -19 -16 -69 14 -84 51 -20 48 -8 129 23 156 34 29 69 32 392 39 149 3 331 8 407 11 l136 6 62 246 c33 136 68 261 76 278 19 39 58 57 121 56 57 -2 94 -26 107 -71 8 -26 5 -35 -12 -54 -12 -13 -22 -31 -22 -40 0 -9 -26 -121 -59 -249 -75 -298 -73 -288 -62 -288 5 0 24 15 43 33 18 17 50 46 69 63 39 32 42 41 99 259 17 66 49 165 72 220 35 88 40 109 38 173 -2 103 25 269 77 476 33 134 50 185 68 204 13 14 23 27 22 28 -1 2 -29 -6 -61 -17 -37 -13 -90 -21 -145 -22 -78 -2 -90 1 -133 26 -26 15 -60 43 -74 61 -25 31 -27 40 -25 111 4 138 57 294 165 485 55 97 77 117 141 133 31 7 87 6 115 -3z m1055 -419 c-26 -80 -154 -242 -239 -303 -28 -21 -28 -21 9 38 21 32 64 87 95 122 31 35 77 94 101 131 24 37 46 67 48 65 1 -1 -5 -25 -14 -53z m176 -5242 c45 -20 129 -96 129 -118 0 -5 -14 -19 -31 -31 -28 -20 -29 -24 -15 -39 21 -23 20 -50 -1 -73 -18 -20 -48 -24 -58 -7 -16 25 -90 69 -117 69 -84 0 -198 -152 -256 -342 -22 -71 -40 -198 -26 -185 4 4 9 17 11 29 4 28 90 190 153 288 60 92 105 138 147 146 27 5 37 1 63 -24 28 -28 30 -36 30 -99 0 -136 30 -308 68 -395 l17 -41 26 39 c15 22 30 50 34 64 4 14 24 43 44 65 98 107 201 295 235 427 42 166 74 208 159 208 62 0 102 -21 116 -61 10 -28 8 -35 -9 -54 -11 -12 -20 -32 -20 -46 0 -13 -12 -60 -26 -104 -28 -88 -43 -262 -26 -305 9 -24 11 -22 42 40 18 36 43 93 56 127 13 34 33 79 44 100 11 21 20 41 20 45 0 13 107 172 129 192 28 25 118 27 155 3 42 -28 51 -65 26 -99 -11 -16 -19 -32 -16 -36 3 -5 -14 -140 -38 -301 -40 -275 -44 -325 -17 -240 6 20 41 87 76 150 36 62 65 115 65 118 1 8 189 142 309 220 82 53 99 61 142 61 64 0 95 -15 114 -57 16 -33 16 -36 -4 -57 -12 -13 -21 -36 -21 -54 0 -29 -9 -37 -107 -103 -224 -150 -468 -344 -585 -465 l-46 -49 -37 -205 c-154 -869 -358 -1540 -546 -1793 -83 -112 -178 -148 -251 -95 -16 11 -28 15 -28 9 0 -5 -9 -13 -20 -16 -11 -4 -17 -11 -14 -17 11 -17 -29 8 -52 34 -68 74 -97 193 -97 398 0 569 285 1211 786 1773 85 96 104 125 167 253 81 165 88 207 19 112 -106 -143 -171 -198 -237 -198 -42 0 -94 39 -117 87 l-21 42 -59 -90 c-146 -222 -291 -307 -398 -234 -34 22 -37 23 -49 7 -21 -28 -44 -24 -77 13 -57 66 -70 102 -60 175 5 36 16 86 24 112 16 50 20 98 8 98 -5 -1 -39 -42 -78 -91 -113 -146 -185 -216 -229 -224 -20 -4 -47 -3 -59 2 -15 7 -29 5 -49 -6 -26 -15 -28 -15 -56 12 -63 61 -70 182 -18 327 70 196 171 412 208 447 101 91 228 114 349 62z"/><path d="M3580 10161 c-52 -21 -106 -43 -120 -50 -24 -12 -30 -36 -145 -609 -65 -328 -120 -606 -121 -617 -1 -11 -4 -27 -7 -35 -8 -21 -117 -559 -115 -568 0 -4 -1 -14 -4 -22 -7 -18 -69 -335 -73 -370 -1 -14 -5 -32 -8 -40 -7 -17 -38 -180 -102 -534 -35 -195 -42 -252 -33 -258 23 -15 62 2 98 41 19 21 69 56 110 77 386 200 832 759 1088 1364 186 439 291 980 238 1228 -31 147 -115 265 -230 322 -33 17 -65 30 -73 30 -7 0 -13 4 -13 8 0 5 -15 7 -32 5 -26 -2 -29 -1 -13 6 16 7 12 9 -24 12 -116 12 -297 -26 -469 -97 -46 -19 -89 -33 -94 -32 -5 2 1 19 14 37 26 38 100 83 192 117 34 13 54 23 46 23 -8 0 -58 -17 -110 -38z"/><path d="M3225 9960 c-173 -129 -344 -323 -444 -505 -48 -86 -112 -241 -111 -268 1 -7 14 22 29 63 93 250 284 504 511 678 105 81 105 81 99 86 -3 3 -41 -21 -84 -54z"/><path d="M4416 8663 c-21 -58 -66 -171 -100 -249 -287 -649 -793 -1236 -1221 -1416 -38 -16 -56 -26 -40 -23 17 3 71 26 120 50 391 188 855 735 1125 1325 68 147 169 420 157 420 -3 0 -21 -48 -41 -107z"/><path d="M2715 7205 c10 -60 27 -80 21 -26 -2 24 -10 49 -16 55 -10 8 -11 2 -5 -29z"/><path d="M4735 8818 c-73 -81 -126 -187 -131 -263 -6 -86 10 -102 31 -30 9 33 30 86 47 119 36 73 14 55 -36 -28 -40 -66 -46 -62 -18 12 23 61 89 157 136 200 31 28 46 52 32 52 -2 0 -30 -28 -61 -62z"/><path d="M5767 8688 c-19 -24 -46 -65 -61 -93 -31 -55 -22 -47 40 35 70 93 86 138 21 58z"/><path d="M4935 8389 c-33 -21 -56 -39 -51 -39 15 0 106 55 111 67 2 7 3 13 2 12 -1 0 -29 -18 -62 -40z"/><path d="M4840 8340 c-8 -5 -10 -10 -5 -10 6 0 17 5 25 10 8 5 11 10 5 10 -5 0 -17 -5 -25 -10z"/><path d="M8059 8037 c-349 -411 -349 -411 -349 -444 1 -25 4 -22 31 28 16 30 154 201 304 379 236 277 287 341 273 340 -2 0 -118 -137 -259 -303z"/><path d="M5056 8264 c-4 -14 -5 -28 -3 -31 3 -2 8 8 11 23 4 14 5 28 3 31 -3 2 -8 -8 -11 -23z"/><path d="M7038 8013 c-325 -384 -328 -387 -328 -420 1 -25 4 -22 31 28 27 50 404 505 501 606 22 22 39 46 36 53 -2 6 -110 -114 -240 -267z"/><path d="M6216 8165 c-127 -162 -301 -329 -406 -389 -25 -14 -40 -26 -35 -26 22 0 108 58 188 127 70 60 327 341 327 358 0 17 -22 -4 -74 -70z"/><path d="M5031 8174 c0 -11 3 -14 6 -6 3 7 2 16 -1 19 -3 4 -6 -2 -5 -13z"/><path d="M7048 7943 c-348 -408 -328 -381 -328 -452 0 -69 1 -70 74 -45 41 14 50 14 57 3 13 -21 11 -55 -5 -68 -8 -6 -16 -26 -19 -44 -2 -18 -33 -143 -68 -279 -35 -136 -60 -251 -56 -255 5 -4 18 4 30 18 12 14 45 45 73 67 l52 42 154 0 154 0 -4 36 c-14 115 74 316 249 571 27 39 49 79 49 88 0 22 -21 61 -95 181 -35 55 -79 129 -98 165 -34 62 -35 66 -26 128 5 35 8 66 6 68 -2 2 -92 -99 -199 -224z"/><path d="M6187 8048 c-87 -108 -271 -289 -340 -337 -66 -45 -105 -60 -192 -72 -86 -12 -136 -2 -196 38 l-38 25 -3 86 -3 86 -59 -95 c-77 -122 -167 -248 -200 -279 l-27 -24 22 49 c12 28 41 75 64 105 23 30 73 102 110 160 37 58 79 122 92 142 14 20 23 42 21 48 -2 6 -28 -31 -58 -81 -81 -137 -190 -288 -249 -342 -28 -26 -51 -54 -51 -61 0 -64 -104 -348 -210 -572 -61 -129 -61 -149 1 -95 59 52 140 95 193 102 73 11 501 10 701 -2 94 -5 223 -12 287 -15 l117 -7 -5 50 c-15 125 66 315 247 580 27 39 49 80 49 90 0 19 -19 53 -136 249 l-71 119 7 70 c4 39 6 71 5 73 -1 1 -36 -39 -78 -90z"/><path d="M6538 7368 c-78 -126 -130 -223 -142 -268 -4 -14 14 18 41 70 58 113 149 257 170 268 8 5 13 19 11 31 -2 17 -21 -7 -80 -101z"/><path d="M7538 7368 c-78 -126 -130 -223 -142 -268 -4 -14 14 18 41 70 58 113 149 257 170 268 8 5 13 19 11 31 -2 17 -21 -7 -80 -101z"/><path d="M4937 7413 c-10 -9 -9 -23 2 -23 5 0 11 7 15 15 5 15 -5 20 -17 8z"/><path d="M4852 7227 c-46 -119 -96 -277 -89 -283 2 -2 20 35 40 83 120 292 123 303 97 303 -5 0 -26 -46 -48 -103z"/><path d="M6523 7267 c-99 -151 -179 -334 -96 -220 33 45 147 272 141 278 -2 3 -22 -24 -45 -58z"/><path d="M7523 7267 c-99 -151 -179 -334 -96 -220 33 45 147 272 141 278 -2 3 -22 -24 -45 -58z"/><path d="M6371 7024 c0 -11 3 -14 6 -6 3 7 2 16 -1 19 -3 4 -6 -2 -5 -13z"/><path d="M7371 7024 c0 -11 3 -14 6 -6 3 7 2 16 -1 19 -3 4 -6 -2 -5 -13z"/><path d="M6476 6944 c-50 -36 -54 -44 -8 -20 22 12 74 58 61 55 -2 -1 -26 -16 -53 -35z"/><path d="M4815 6701 l-60 -6 -57 -107 c-39 -74 -65 -138 -82 -205 -66 -260 -257 -1089 -256 -1111 1 -18 23 35 55 134 39 120 141 333 181 378 40 45 133 56 199 23 31 -15 65 -49 82 -81 14 -26 13 -30 -10 -55 -24 -25 -24 -28 -11 -66 8 -22 19 -82 24 -132 6 -51 16 -107 23 -124 l12 -32 45 94 c25 53 65 118 92 148 63 73 187 248 278 395 126 202 205 261 350 260 89 -1 150 -26 207 -84 54 -57 59 -77 24 -98 -25 -14 -27 -19 -19 -38 16 -34 2 -73 -27 -80 -20 -5 -34 2 -65 30 -70 63 -115 61 -190 -10 -83 -78 -170 -276 -186 -425 -7 -69 4 -73 25 -8 22 69 180 333 226 377 52 50 92 56 129 19 20 -20 24 -36 30 -137 10 -168 58 -380 85 -380 7 0 61 84 61 95 0 5 17 29 38 54 57 67 132 182 190 291 47 88 55 114 112 365 33 149 66 294 72 323 10 47 17 59 67 99 31 25 66 50 79 56 12 6 22 14 22 19 0 10 -63 10 -519 -2 -369 -11 -374 -10 -396 10 -21 19 -32 20 -396 18 -206 -1 -401 -4 -434 -7z"/><path d="M5030 4844 c-117 -21 -151 -28 -216 -50 -41 -13 -110 -40 -153 -60 l-77 -35 -37 -187 c-19 -103 -119 -599 -220 -1102 -220 -1089 -343 -1737 -332 -1749 2 -2 26 21 53 50 27 30 62 68 78 85 16 17 61 48 99 68 435 234 922 896 1154 1569 102 297 160 572 168 797 6 168 -8 256 -56 349 -18 37 -26 63 -21 71 5 8 7 17 4 21 -2 4 3 9 11 13 52 20 -55 101 -185 140 -54 17 -221 29 -270 20z"/><path d="M6862 2146 c-291 -353 -505 -783 -589 -1184 -22 -107 -26 -154 -27 -297 -1 -163 12 -265 35 -265 9 0 45 93 65 169 7 29 24 72 38 95 71 122 196 497 286 856 53 213 105 354 206 558 36 73 64 138 62 144 -2 6 -36 -28 -76 -76z"/></g></svg>